<svg width="32" height="32" viewBox="0 0 32 32" fill="none" xmlns="http://www.w3.org/2000/svg">
<path d="M12.318 7.66131C13.0791 5.43404 16.1565 5.36659 17.0589 7.45895L17.1353 7.66259L18.1624 10.6662C18.3977 11.3551 18.7781 11.9854 19.2778 12.5148C19.7775 13.0441 20.3849 13.4601 21.0591 13.7348L21.3353 13.8379L24.3389 14.8637C26.5662 15.6248 26.6336 18.7022 24.5426 19.6046L24.3389 19.6809L21.3353 20.708C20.6462 20.9433 20.0156 21.3236 19.486 21.8233C18.9565 22.323 18.5402 22.9305 18.2655 23.6048L18.1624 23.8797L17.1365 26.8846C16.3755 29.1119 13.298 29.1793 12.3969 27.0882L12.318 26.8846L11.2922 23.8809C11.057 23.1919 10.6767 22.5613 10.1769 22.0317C9.67723 21.5021 9.06974 21.0859 8.39546 20.8111L8.12055 20.708L5.11691 19.6822C2.88837 18.9211 2.82091 15.8437 4.91328 14.9426L5.11691 14.8637L8.12055 13.8379C8.80939 13.6025 9.43974 13.2221 9.96909 12.7224C10.4984 12.2227 10.9145 11.6153 11.1891 10.9411L11.2922 10.6662L12.318 7.66131ZM24.9091 3.27295C25.1472 3.27295 25.3805 3.33974 25.5826 3.46573C25.7846 3.59172 25.9472 3.77186 26.052 3.98568L26.1131 4.13459L26.5585 5.4404L27.8656 5.88586C28.1043 5.96693 28.3134 6.11701 28.4667 6.31708C28.6199 6.51715 28.7103 6.75821 28.7264 7.0097C28.7424 7.2612 28.6835 7.51181 28.557 7.72977C28.4305 7.94773 28.2422 8.12324 28.0158 8.23404L27.8656 8.29513L26.5598 8.74059L26.1144 10.0477C26.0332 10.2862 25.883 10.4953 25.6828 10.6484C25.4827 10.8015 25.2416 10.8917 24.9901 10.9077C24.7386 10.9236 24.488 10.8646 24.2702 10.738C24.0523 10.6114 23.8769 10.423 23.7662 10.1966L23.7051 10.0477L23.2596 8.74186L21.9526 8.2964C21.7139 8.21534 21.5048 8.06526 21.3515 7.86518C21.1983 7.66511 21.1079 7.42405 21.0918 7.17256C21.0757 6.92106 21.1347 6.67046 21.2612 6.45249C21.3877 6.23453 21.576 6.05903 21.8024 5.94822L21.9526 5.88713L23.2584 5.44168L23.7038 4.13459C23.7896 3.88313 23.952 3.66483 24.1682 3.51031C24.3843 3.35579 24.6434 3.27279 24.9091 3.27295Z" fill="black"/>
</svg>
