<svg width="16" height="16" viewBox="0 0 16 16" fill="none" xmlns="http://www.w3.org/2000/svg">
<path d="M14.9375 7.99992H5.67125M2.4005 7.99992H1.0625M2.4005 7.99992C2.4005 7.56629 2.57276 7.15042 2.87938 6.8438C3.186 6.53718 3.60187 6.36492 4.0355 6.36492C4.46913 6.36492 4.885 6.53718 5.19162 6.8438C5.49824 7.15042 5.6705 7.56629 5.6705 7.99992C5.6705 8.43355 5.49824 8.84942 5.19162 9.15604C4.885 9.46266 4.46913 9.63492 4.0355 9.63492C3.60187 9.63492 3.186 9.46266 2.87938 9.15604C2.57276 8.84942 2.4005 8.43355 2.4005 7.99992ZM14.9375 12.9552H10.6265M10.6265 12.9552C10.6265 13.3889 10.4538 13.8052 10.1471 14.1119C9.84044 14.4186 9.42448 14.5909 8.99075 14.5909C8.55712 14.5909 8.14125 14.4179 7.83463 14.1113C7.52801 13.8047 7.35575 13.3888 7.35575 12.9552M10.6265 12.9552C10.6265 12.5214 10.4538 12.1058 10.1471 11.7992C9.84044 11.4925 9.42448 11.3202 8.99075 11.3202C8.55712 11.3202 8.14125 11.4924 7.83463 11.799C7.52801 12.1057 7.35575 12.5215 7.35575 12.9552M7.35575 12.9552H1.0625M14.9375 3.04467H12.6088M9.338 3.04467H1.0625M9.338 3.04467C9.338 2.61104 9.51026 2.19517 9.81688 1.88855C10.1235 1.58193 10.5394 1.40967 10.973 1.40967C11.1877 1.40967 11.4003 1.45196 11.5987 1.53412C11.7971 1.61629 11.9773 1.73672 12.1291 1.88855C12.2809 2.04037 12.4014 2.22061 12.4835 2.41898C12.5657 2.61735 12.608 2.82996 12.608 3.04467C12.608 3.25938 12.5657 3.47199 12.4835 3.67036C12.4014 3.86872 12.2809 4.04896 12.1291 4.20079C11.9773 4.35261 11.7971 4.47304 11.5987 4.55521C11.4003 4.63738 11.1877 4.67967 10.973 4.67967C10.5394 4.67967 10.1235 4.50741 9.81688 4.20079C9.51026 3.89417 9.338 3.4783 9.338 3.04467Z" stroke="#767676" stroke-width="1.125" stroke-miterlimit="10" stroke-linecap="round"/>
</svg>
