<svg width="25" height="26" viewBox="0 0 25 26" fill="none" xmlns="http://www.w3.org/2000/svg">
<path d="M9.15723 23.1939V19.6265C9.15723 18.7159 9.90086 17.9777 10.8182 17.9777H14.1714C14.6119 17.9777 15.0343 18.1514 15.3458 18.4606C15.6573 18.7698 15.8323 19.1892 15.8323 19.6265V23.1939C15.8295 23.5725 15.9791 23.9365 16.2478 24.2052C16.5164 24.4739 16.882 24.625 17.2634 24.6249H19.5511C20.6196 24.6277 21.6452 24.2083 22.4017 23.4592C23.1582 22.7102 23.5833 21.6931 23.5833 20.6324V10.4696C23.5833 9.61283 23.2007 8.80011 22.5387 8.25041L14.7564 2.08014C13.4026 0.998281 11.463 1.03321 10.1496 2.1631L2.54484 8.25041C1.85152 8.7839 1.43713 9.59904 1.41666 10.4696V20.6221C1.41666 22.8328 3.22193 24.6249 5.44886 24.6249H7.68433C8.47642 24.625 9.12015 23.9905 9.12589 23.2042L9.15723 23.1939Z" stroke="#B3B3B3" stroke-width="1.625"/>
</svg>
