<svg width="22" height="26" viewBox="0 0 22 26" fill="none" xmlns="http://www.w3.org/2000/svg">
<path d="M10.9997 16.6061L10.9997 15.5923L10.9997 15.5923L10.9997 16.6061ZM20.3337 20.6022L21.3474 20.6022L21.3474 20.6021L20.3337 20.6022ZM10.9997 24.5699L10.9997 25.5837H10.9997V24.5699ZM1.66669 20.5748L0.652925 20.5748L0.652925 20.575L1.66669 20.5748ZM10.9997 1.23694L10.9997 0.223177L10.9997 0.223177L10.9997 1.23694ZM17.1765 7.40979L18.1902 7.40979L18.1902 7.40978L17.1765 7.40979ZM10.9997 13.5836L10.9997 14.5974H10.9997V13.5836ZM4.82391 7.40979L3.81015 7.40978V7.40979H4.82391ZM10.9997 16.6061V17.6198C13.5058 17.6198 15.6954 17.8276 17.2263 18.3698C17.9849 18.6385 18.5107 18.9652 18.8396 19.324C19.1475 19.66 19.3199 20.0619 19.3199 20.6022L20.3337 20.6022L21.3474 20.6021C21.3474 19.5558 20.9857 18.6649 20.3343 17.9542C19.7039 17.2663 18.8453 16.7923 17.9032 16.4586C16.0325 15.796 13.5552 15.5923 10.9997 15.5923V16.6061ZM20.3337 20.6022H19.3199C19.3199 21.1408 19.1473 21.5397 18.839 21.8729C18.5091 22.2296 17.9813 22.5536 17.2201 22.8194C15.6845 23.3557 13.4937 23.5562 10.9997 23.5562V24.5699V25.5837C13.5394 25.5837 16.0156 25.3876 17.8885 24.7336C18.8316 24.4043 19.6936 23.9348 20.3273 23.2498C20.9825 22.5415 21.3474 21.6508 21.3474 20.6022H20.3337ZM10.9997 24.5699L10.9997 23.5562C8.49423 23.5562 6.30493 23.3486 4.77413 22.8066C4.01548 22.538 3.48972 22.2114 3.16085 21.8526C2.85291 21.5167 2.68052 21.1149 2.68045 20.5747L1.66669 20.5748L0.652925 20.575C0.653059 21.6212 1.01487 22.5121 1.66625 23.2227C2.2967 23.9104 3.15538 24.3843 4.09741 24.7179C5.96796 25.3802 8.44497 25.5837 10.9997 25.5837L10.9997 24.5699ZM1.66669 20.5748H2.68045C2.68045 20.0362 2.85308 19.6372 3.16138 19.3038C3.49126 18.9471 4.01889 18.623 4.77997 18.3571C6.31533 17.8206 8.5058 17.6199 10.9997 17.6198L10.9997 16.6061L10.9997 15.5923C8.46 15.5923 5.98397 15.7887 4.11122 16.443C3.16824 16.7725 2.30642 17.2421 1.67286 17.9272C1.01772 18.6356 0.652925 19.5263 0.652925 20.5748H1.66669ZM10.9997 1.23694V2.2507C13.8693 2.2507 16.1627 4.54374 16.1627 7.4098L17.1765 7.40979L18.1902 7.40978C18.1902 3.42283 14.9879 0.223177 10.9997 0.223177V1.23694ZM17.1765 7.40979H16.1627C16.1627 10.2761 13.8691 12.5699 10.9997 12.5699V13.5836V14.5974C14.9882 14.5974 18.1902 11.3966 18.1902 7.40979H17.1765ZM10.9997 13.5836L10.9997 12.5699C8.13161 12.5697 5.83768 10.276 5.83768 7.40979H4.82391H3.81015C3.81015 11.3964 7.01247 14.5972 10.9997 14.5974L10.9997 13.5836ZM4.82391 7.40979L5.83768 7.4098C5.8377 4.54379 8.13143 2.25082 10.9997 2.2507L10.9997 1.23694L10.9997 0.223177C7.01269 0.22335 3.81019 3.42296 3.81015 7.40978L4.82391 7.40979Z" fill="#B3B3B3"/>
</svg>
