<svg width="22" height="26" viewBox="0 0 22 26" fill="none" xmlns="http://www.w3.org/2000/svg">
<path d="M10.9998 16.6061C16.0614 16.6061 20.3336 17.429 20.3337 20.6022C20.3337 23.7767 16.0335 24.5699 10.9998 24.5699C5.93959 24.5699 1.66715 23.7477 1.66675 20.5748C1.66675 17.4004 5.96619 16.6061 10.9998 16.6061ZM10.9998 1.23694C14.4287 1.23694 17.1765 3.98328 17.1765 7.40979C17.1765 10.8363 14.4287 13.5836 10.9998 13.5836C7.57213 13.5834 4.82397 10.8362 4.82397 7.40979C4.82401 3.9834 7.57215 1.23712 10.9998 1.23694Z" fill="#338EC6"/>
<path d="M10.9998 16.6061L10.9998 15.5923L10.9997 15.5923L10.9998 16.6061ZM20.3337 20.6022L21.3475 20.6022L21.3475 20.6021L20.3337 20.6022ZM10.9998 24.5699L10.9997 25.5837H10.9998V24.5699ZM1.66675 20.5748L0.652987 20.5748L0.652987 20.575L1.66675 20.5748ZM10.9998 1.23694L10.9998 0.223177L10.9997 0.223177L10.9998 1.23694ZM17.1765 7.40979L18.1903 7.40979L18.1903 7.40978L17.1765 7.40979ZM10.9998 13.5836L10.9997 14.5974H10.9998V13.5836ZM4.82397 7.40979L3.81021 7.40978V7.40979H4.82397ZM10.9998 16.6061V17.6198C13.5059 17.6198 15.6955 17.8276 17.2263 18.3698C17.985 18.6385 18.5108 18.9652 18.8396 19.324C19.1476 19.66 19.3199 20.0619 19.32 20.6022L20.3337 20.6022L21.3475 20.6021C21.3474 19.5558 20.9857 18.6649 20.3344 17.9542C19.704 17.2663 18.8453 16.7923 17.9032 16.4586C16.0326 15.796 13.5552 15.5923 10.9998 15.5923V16.6061ZM20.3337 20.6022H19.32C19.32 21.1408 19.1473 21.5397 18.839 21.8729C18.5091 22.2296 17.9814 22.5536 17.2202 22.8194C15.6846 23.3557 13.4938 23.5562 10.9998 23.5562V24.5699V25.5837C13.5394 25.5837 16.0157 25.3876 17.8886 24.7336C18.8317 24.4043 19.6936 23.9348 20.3273 23.2498C20.9826 22.5415 21.3475 21.6508 21.3475 20.6022H20.3337ZM10.9998 24.5699L10.9998 23.5562C8.49431 23.5562 6.30501 23.3486 4.7742 22.8066C4.01555 22.538 3.48979 22.2114 3.16091 21.8526C2.85297 21.5167 2.68058 21.1149 2.68051 20.5747L1.66675 20.5748L0.652987 20.575C0.65312 21.6212 1.01493 22.5121 1.66632 23.2227C2.29677 23.9104 3.15545 24.3843 4.09748 24.7178C5.96804 25.3802 8.44504 25.5837 10.9997 25.5837L10.9998 24.5699ZM1.66675 20.5748H2.68051C2.68051 20.0362 2.85314 19.6372 3.16145 19.3038C3.49132 18.9471 4.01896 18.623 4.78004 18.3571C6.3154 17.8206 8.50588 17.6199 10.9998 17.6198L10.9998 16.6061L10.9997 15.5923C8.46007 15.5923 5.98404 15.7887 4.11129 16.443C3.16831 16.7725 2.30649 17.2421 1.67293 17.9272C1.01778 18.6356 0.652987 19.5263 0.652987 20.5748H1.66675ZM10.9998 1.23694V2.2507C13.8694 2.2507 16.1627 4.54374 16.1628 7.4098L17.1765 7.40979L18.1903 7.40978C18.1902 3.42283 14.988 0.223177 10.9998 0.223177V1.23694ZM17.1765 7.40979H16.1628C16.1628 10.2761 13.8692 12.5699 10.9998 12.5699V13.5836V14.5974C14.9882 14.5974 18.1903 11.3966 18.1903 7.40979H17.1765ZM10.9998 13.5836L10.9998 12.5699C8.13169 12.5697 5.83774 10.276 5.83774 7.40979H4.82397H3.81021C3.81021 11.3964 7.01257 14.5972 10.9997 14.5974L10.9998 13.5836ZM4.82397 7.40979L5.83774 7.4098C5.83776 4.54382 8.13151 2.25085 10.9998 2.2507L10.9998 1.23694L10.9997 0.223177C7.01279 0.223388 3.81025 3.42297 3.81021 7.40978L4.82397 7.40979Z" fill="#338EC6"/>
</svg>
