<svg width="17" height="18" viewBox="0 0 17 18" fill="none" xmlns="http://www.w3.org/2000/svg">
<path fill-rule="evenodd" clip-rule="evenodd" d="M0.5 2.33317C0.5 1.89114 0.675595 1.46722 0.988155 1.15466C1.30072 0.842099 1.72464 0.666504 2.16667 0.666504H3.83333C4.13667 0.666504 4.42167 0.747337 4.66667 0.889837C4.92003 0.743542 5.20743 0.666517 5.5 0.666504H7.16667C7.7725 0.666504 8.30333 0.989837 8.595 1.474C8.77 1.334 8.975 1.22734 9.205 1.16567L10.815 0.734837C11.0264 0.678123 11.247 0.663615 11.464 0.69214C11.681 0.720666 11.8903 0.791668 12.0799 0.90109C12.2695 1.01051 12.4357 1.15621 12.569 1.32987C12.7022 1.50352 12.8 1.70173 12.8567 1.91317L16.3067 14.7923C16.3634 15.0038 16.3779 15.2243 16.3494 15.4413C16.3208 15.6584 16.2498 15.8677 16.1404 16.0573C16.031 16.2468 15.8853 16.413 15.7116 16.5463C15.538 16.6796 15.3398 16.7773 15.1283 16.834L13.5183 17.2648C13.3069 17.3216 13.0864 17.3361 12.8693 17.3075C12.6523 17.279 12.443 17.208 12.2534 17.0986C12.0638 16.9892 11.8976 16.8435 11.7644 16.6698C11.6311 16.4962 11.5333 16.2979 11.4767 16.0865L8.83333 6.219V15.6665C8.83333 16.1085 8.65774 16.5325 8.34518 16.845C8.03262 17.1576 7.60869 17.3332 7.16667 17.3332H5.5C5.20743 17.3332 4.92003 17.2561 4.66667 17.1098C4.4133 17.2561 4.1259 17.3332 3.83333 17.3332H2.16667C1.72464 17.3332 1.30072 17.1576 0.988155 16.845C0.675595 16.5325 0.5 16.1085 0.5 15.6665V2.33317ZM2.16667 2.33317H3.83333V15.6665H2.16667V2.33317ZM7.16667 15.6665H5.5V2.33317H7.16667V15.6665ZM9.63667 2.77567L11.2458 2.34484L14.6975 15.224L13.0875 15.6548L9.63667 2.77567Z" fill="black"/>
</svg>
