<svg width="25" height="24" viewBox="0 0 25 24" fill="none" xmlns="http://www.w3.org/2000/svg">
<path d="M22.3829 8.932C22.4167 9.96333 22.4167 11.1557 22.4167 12.5417C22.4167 17.4918 22.4167 19.9663 20.879 21.504C19.3414 23.0417 16.8657 23.0417 11.9167 23.0417C6.96769 23.0417 4.49202 23.0417 2.95435 21.504C1.41669 19.9663 1.41669 17.4907 1.41669 12.5417C1.41669 7.59267 1.41669 5.117 2.95435 3.57933C4.49202 2.04167 6.96769 2.04167 11.9167 2.04167C13.3027 2.04167 14.495 2.04167 15.5264 2.0755M23.5834 3.20833C23.5834 3.82717 23.3375 4.42066 22.8999 4.85825C22.4624 5.29583 21.8689 5.54167 21.25 5.54167C20.6312 5.54167 20.0377 5.29583 19.6001 4.85825C19.1625 4.42066 18.9167 3.82717 18.9167 3.20833C18.9167 2.58949 19.1625 1.996 19.6001 1.55842C20.0377 1.12083 20.6312 0.875 21.25 0.875C21.8689 0.875 22.4624 1.12083 22.8999 1.55842C23.3375 1.996 23.5834 2.58949 23.5834 3.20833Z" stroke="#B3B3B3" stroke-width="1.625" stroke-linecap="round" stroke-linejoin="round"/>
<path d="M4.91669 12.5417H7.83335L10.1667 7.875L13.6667 17.2083L16 12.5417H18.9167" stroke="#B3B3B3" stroke-width="1.625" stroke-linecap="round" stroke-linejoin="round"/>
</svg>
