<svg width="25" height="24" viewBox="0 0 25 24" fill="none" xmlns="http://www.w3.org/2000/svg">
<path d="M22.3828 8.932C22.4166 9.96333 22.4166 11.1557 22.4166 12.5417C22.4166 17.4918 22.4166 19.9663 20.879 21.504C19.3413 23.0417 16.8656 23.0417 11.9166 23.0417C6.96763 23.0417 4.49196 23.0417 2.95429 21.504C1.41663 19.9663 1.41663 17.4907 1.41663 12.5417C1.41663 7.59267 1.41663 5.117 2.95429 3.57933C4.49196 2.04167 6.96763 2.04167 11.9166 2.04167C13.3026 2.04167 14.495 2.04167 15.5263 2.0755M23.5833 3.20833C23.5833 3.82717 23.3375 4.42066 22.8999 4.85825C22.4623 5.29583 21.8688 5.54167 21.25 5.54167C20.6311 5.54167 20.0376 5.29583 19.6 4.85825C19.1625 4.42066 18.9166 3.82717 18.9166 3.20833C18.9166 2.58949 19.1625 1.996 19.6 1.55842C20.0376 1.12083 20.6311 0.875 21.25 0.875C21.8688 0.875 22.4623 1.12083 22.8999 1.55842C23.3375 1.996 23.5833 2.58949 23.5833 3.20833Z" stroke="#338EC6" stroke-width="1.625" stroke-linecap="round" stroke-linejoin="round"/>
<path d="M4.91663 12.5417H7.83329L10.1666 7.875L13.6666 17.2083L16 12.5417H18.9166" stroke="#338EC6" stroke-width="1.625" stroke-linecap="round" stroke-linejoin="round"/>
</svg>
