<svg width="24" height="27" viewBox="0 0 24 27" fill="none" xmlns="http://www.w3.org/2000/svg">
<path d="M7.73943 25.0001C8.44093 25.0001 9.00961 24.4757 9.00961 23.8288C9.00961 23.182 8.44093 22.6576 7.73943 22.6576C7.03792 22.6576 6.46924 23.182 6.46924 23.8288C6.46924 24.4757 7.03792 25.0001 7.73943 25.0001Z" stroke="#B3B3B3" stroke-width="2.1" stroke-linecap="round" stroke-linejoin="round"/>
<path d="M18.0751 25.0001C18.7766 25.0001 19.3453 24.4757 19.3453 23.8288C19.3453 23.182 18.7766 22.6576 18.0751 22.6576C17.3736 22.6576 16.8049 23.182 16.8049 23.8288C16.8049 24.4757 17.3736 25.0001 18.0751 25.0001Z" stroke="#B3B3B3" stroke-width="2.1" stroke-linecap="round" stroke-linejoin="round"/>
<path d="M2 2H3.99601L6.6507 16.1293C6.74808 16.6468 7.00067 17.1094 7.36498 17.4374C7.72929 17.7655 8.18254 17.9385 8.64671 17.9268H18.4072C18.8615 17.9259 19.3019 17.7485 19.6557 17.4238C20.0096 17.099 20.2556 16.6464 20.3533 16.1407L22 7.68813H5.06387" stroke="#B3B3B3" stroke-width="2.1" stroke-linecap="round" stroke-linejoin="round"/>
</svg>
