<svg width="20" height="24" viewBox="0 0 20 24" fill="none" xmlns="http://www.w3.org/2000/svg">
<path d="M3.3861 7.3335H16.6149C16.9514 7.33346 17.2838 7.40617 17.5895 7.54665C17.8952 7.68713 18.1669 7.89205 18.386 8.14737C18.6051 8.40268 18.7664 8.70236 18.8588 9.02585C18.9512 9.34933 18.9726 9.68898 18.9214 10.0215L17.4573 19.5322C17.3302 20.3587 16.9113 21.1124 16.2766 21.6568C15.6419 22.2012 14.8332 22.5004 13.9969 22.5002H6.00294C5.1669 22.5001 4.3585 22.2008 3.724 21.6564C3.08951 21.112 2.67085 20.3585 2.54377 19.5322L1.0796 10.0215C1.02847 9.68898 1.04984 9.34933 1.14226 9.02585C1.23468 8.70236 1.39596 8.40268 1.61504 8.14737C1.83412 7.89205 2.10582 7.68713 2.41152 7.54665C2.71721 7.40617 3.04967 7.33346 3.3861 7.3335Z" stroke="#B3B3B3" stroke-width="2" stroke-linecap="round" stroke-linejoin="round"/>
<path d="M6.5 10.8333V5C6.5 4.07174 6.86875 3.1815 7.52513 2.52513C8.1815 1.86875 9.07174 1.5 10 1.5C10.9283 1.5 11.8185 1.86875 12.4749 2.52513C13.1313 3.1815 13.5 4.07174 13.5 5V10.8333" stroke="#B3B3B3" stroke-width="2" stroke-linecap="round" stroke-linejoin="round"/>
</svg>
