<svg width="20" height="23" viewBox="0 0 20 23" fill="none" xmlns="http://www.w3.org/2000/svg">
<path d="M6.5 10.8333V5C6.5 4.07174 6.86875 3.1815 7.52513 2.52513C8.1815 1.86875 9.07174 1.5 10 1.5C10.9283 1.5 11.8185 1.86875 12.4749 2.52513C13.1313 3.1815 13.5 4.07174 13.5 5V10.8333" fill="white"/>
<path d="M6.5 10.8333V5C6.5 4.07174 6.86875 3.1815 7.52513 2.52513C8.1815 1.86875 9.07174 1.5 10 1.5C10.9283 1.5 11.8185 1.86875 12.4749 2.52513C13.1313 3.1815 13.5 4.07174 13.5 5V10.8333" stroke="#338EC6" stroke-width="2" stroke-linecap="round" stroke-linejoin="round"/>
<path d="M3.38622 7.33337H16.6151C16.9515 7.33333 17.2839 7.40605 17.5896 7.54652C17.8953 7.687 18.167 7.89193 18.3861 8.14724C18.6052 8.40256 18.7665 8.70224 18.8589 9.02572C18.9513 9.34921 18.9727 9.68885 18.9216 10.0214L17.4574 19.532C17.3303 20.3586 16.9114 21.1123 16.2767 21.6567C15.642 22.2011 14.8333 22.5003 13.9971 22.5H6.00306C5.16702 22.5 4.35862 22.2007 3.72413 21.6563C3.08963 21.1119 2.67097 20.3584 2.54389 19.532L1.07972 10.0214C1.02859 9.68885 1.04996 9.34921 1.14238 9.02572C1.2348 8.70224 1.39608 8.40256 1.61516 8.14724C1.83424 7.89193 2.10595 7.687 2.41164 7.54652C2.71734 7.40605 3.0498 7.33333 3.38622 7.33337Z" fill="#338EC6" stroke="#338EC6" stroke-linecap="round" stroke-linejoin="round"/>
</svg>
